<?xml version="1.0"?>
<svg width="24" height="24" xmlns="http://www.w3.org/2000/svg" xmlns:svg="http://www.w3.org/2000/svg">
 <title>LinkedIn icon</title>

 <g class="layer">
  <title>Layer 1</title>
  <path d="m20.447,20.452l-3.554,0l0,-5.569c0,-1.328 -0.027,-3.037 -1.852,-3.037c-1.853,0 -2.136,1.445 -2.136,2.939l0,5.667l-3.554,0l0,-11.452l3.414,0l0,1.561l0.046,0c0.477,-0.9 1.637,-1.85 3.37,-1.85c3.601,0 4.267,2.37 4.267,5.455l0,6.286l-0.001,0zm-15.11,-13.019c-1.144,0 -2.063,-0.926 -2.063,-2.065c0,-1.138 0.92,-2.063 2.063,-2.063c1.14,0 2.064,0.925 2.064,2.063c0,1.139 -0.925,2.065 -2.064,2.065zm1.782,13.019l-3.564,0l0,-11.452l3.564,0l0,11.452zm15.106,-20.452l-20.454,0c-0.979,0 -1.771,0.774 -1.771,1.729l0,20.542c0,0.956 0.792,1.729 1.771,1.729l20.451,0c0.978,0 1.778,-0.773 1.778,-1.729l0,-20.542c0,-0.955 -0.8,-1.729 -1.778,-1.729l0.003,0z" fill="#bfbfbf" id="svg_1"/>
 </g>
</svg>