<?xml version="1.0"?>
<svg width="482.8" height="482.8" xmlns="http://www.w3.org/2000/svg" xmlns:svg="http://www.w3.org/2000/svg">

 <g class="layer">
  <title>Layer 1</title>
  <g id="svg_1">
   <g id="svg_2">
    <path d="m255.2,209.3c-5.3,5.3 -5.3,13.8 0,19.1c21.9,21.9 21.9,57.5 0,79.4l-115,115c-21.9,21.9 -57.5,21.9 -79.4,0l-17.3,-17.3c-21.9,-21.9 -21.9,-57.5 0,-79.4l115,-115c5.3,-5.3 5.3,-13.8 0,-19.1s-13.8,-5.3 -19.1,0l-115,115c-15.7,15.7 -24.4,36.6 -24.4,58.8c0,22.2 8.6,43.1 24.4,58.8l17.3,17.3c16.2,16.2 37.5,24.3 58.8,24.3s42.6,-8.1 58.8,-24.3l115,-115c32.4,-32.4 32.4,-85.2 0,-117.6c-5.2,-5.3 -13.8,-5.3 -19.1,0z" fill="#7f7f7f" id="svg_3"/>
    <path d="m458.5,58.2l-17.3,-17.3c-32.4,-32.4 -85.2,-32.4 -117.6,0l-115,115c-32.4,32.4 -32.4,85.2 0,117.6c5.3,5.3 13.8,5.3 19.1,0s5.3,-13.8 0,-19.1c-21.9,-21.9 -21.9,-57.5 0,-79.4l115,-115c21.9,-21.9 57.5,-21.9 79.4,0l17.3,17.3c21.9,21.9 21.9,57.5 0,79.4l-115,115c-5.3,5.3 -5.3,13.8 0,19.1c2.6,2.6 6.1,4 9.5,4s6.9,-1.3 9.5,-4l115,-115c15.7,-15.7 24.4,-36.6 24.4,-58.8c0,-22.2 -8.6,-43.1 -24.3,-58.8z" fill="#7f7f7f" id="svg_4"/>
   </g>
  </g>
  <g id="svg_5"/>
  <g id="svg_6"/>
  <g id="svg_7"/>
  <g id="svg_8"/>
  <g id="svg_9"/>
  <g id="svg_10"/>
  <g id="svg_11"/>
  <g id="svg_12"/>
  <g id="svg_13"/>
  <g id="svg_14"/>
  <g id="svg_15"/>
  <g id="svg_16"/>
  <g id="svg_17"/>
  <g id="svg_18"/>
  <g id="svg_19"/>
 </g>
</svg>