<svg class="fi-padding" role="img" xmlns="http://www.w3.org/2000/svg" width="1000mm" height="1000mm" viewBox="0 0 1000 1000" style="width:1.33em; height:1.33em;vertical-align: middle;"><path id="path" fill="currentColor" d=" M 589 60C 589 60 589 60 589 60C 686 1 819 18 900 99C 991 187 1000 341 921 438C 864 501 800 560 741 622C 633 727 430 719 343 593C 316 563 311 509 349 487C 386 465 430 490 443 527C 489 590 586 585 646 546C 708 487 767 426 826 366C 872 318 868 236 821 190C 778 139 699 123 645 164C 605 198 571 236 535 271C 479 257 419 258 365 279C 387 244 421 220 448 190C 494 147 533 95 589 60M 568 339C 568 339 568 339 568 339C 611 361 651 392 673 434C 697 477 651 533 605 519C 560 507 559 447 513 436C 448 411 367 428 322 484C 271 534 219 585 170 638C 125 689 135 771 186 814C 225 860 297 881 348 841C 390 806 427 765 465 728C 521 743 581 741 635 720C 613 755 579 779 552 809C 508 852 468 900 417 938C 311 1011 155 976 79 874C 0 777 9 623 100 536C 160 479 217 417 279 361C 360 296 478 288 568 339" transform=""></path></svg>